<svg id="Capa_1" data-name="Capa 1" xmlns="http://www.w3.org/2000/svg" viewBox="0 0 1920 1080"><title>background</title><rect width="1920" height="1080" style="fill:#fff;opacity:0.21"/><path d="M1551,146.48l-4.19-1.73c3.56-10.57,7.14-50.06-2.27-62.91,7.92,1.17,15.56-2.41,18.39-9.23,3.42-8.26-1.51-18.18-11-22.11s-20-.4-23.4,7.86c-2.83,6.82,0,14.76,6.46,19.53-15.74,2.43-41.15,32.87-46.11,42.85l-4.18-1.73c-2.44-1-5.13-.1-6,2l-8,19.25c-.88,2.13.38,4.67,2.82,5.68l66.28,27.47c2.44,1,5.13.11,6-2l8-19.25C1554.73,150,1553.47,147.49,1551,146.48Zm-18-86.29c2.55-6.15,10.34-8.76,17.39-5.83s10.71,10.27,8.16,16.42-10.33,8.75-17.39,5.83S1530.45,66.34,1533,60.19Zm5.85,22c9.4,3.9,8.27,47.4,3.59,60.71l-49.08-20.35C1499.46,109.86,1529.43,78.31,1538.84,82.21Zm2.61,87.37-66.28-27.47,8-19.25,66.27,27.47Z" transform="translate(-1.5 -0.5)" style="fill:#d2d1db;opacity:0.21"/><path d="M326.93,191a2.6,2.6,0,0,0-.17-.77c-5.49-11.42-26.73-21.54-50.76-10-21.51,10.34-59.7-1.3-66.75-6.08a2.92,2.92,0,0,0-1.43-.5c-13.17-1.23-43.68,22.41-50.42,31.66a2.81,2.81,0,0,0-.36,2.86l12.07,25.09c-.2,3.46-.66,18.38,5.08,30.31.05.12.16.19.23.3a5.78,5.78,0,0,0-1.74,6.75l4,8.35c1.37,2.84,5.14,3.86,8.45,2.27l147.59-71c3.3-1.58,4.87-5.17,3.5-8l-4-8.35A5.62,5.62,0,0,0,326.93,191Zm-6.14,2.1-32.22,15.49-11-22.85c.28-.13.6-.22.88-.36C300.36,174.85,317.08,185.39,320.79,193.09ZM175.6,232.29a2.55,2.55,0,0,0-.23-1.31l-11.63-24.19c8-9.38,33-27.12,42-27.31,8.07,4.71,41.08,15.44,65.54,8.5l11.29,23.47L180.16,260.7C174.36,248.64,175.59,232.45,175.6,232.29Zm154.66-27.15-147.59,71-4-8.35,147.59-71Zm-119.64,9.29c2.47,5.14-.36,11.64-6.35,14.52s-12.83,1-15.31-4.11.38-11.65,6.35-14.52S208.14,209.29,210.62,214.43ZM210.46,186a4.19,4.19,0,1,1-5.28-1.41A3.88,3.88,0,0,1,210.46,186Zm13.13,8.19a4.19,4.19,0,1,1-5.28-1.42A3.88,3.88,0,0,1,223.59,194.23Zm14.91,3a4.19,4.19,0,1,1-5.28-1.42A3.89,3.89,0,0,1,238.5,197.19Zm16.48-.13a3.88,3.88,0,0,1-2.19,5c-2.06,1-4.43.36-5.28-1.41a4.19,4.19,0,0,1,7.47-3.59Z" transform="translate(-1.5 -0.5)" style="fill:#d2d1db;opacity:0.21"/><path d="M1152.71,130.72a6.33,6.33,0,0,0-3-8.24l-40.55-20.25L1068.57,82a6.32,6.32,0,0,0-8.41,2.53l-42.25,77.81a6.1,6.1,0,0,0-.42,4.86,6.55,6.55,0,0,0,3.27,3.76L1050,185.52a6.43,6.43,0,0,0,6.46-.39l17-11.54,1,20.56a6.41,6.41,0,0,0,3.58,5.4l29.21,14.59a6.53,6.53,0,0,0,5,.36,6.16,6.16,0,0,0,3.63-3.26ZM1135.48,153c-.11-.11-.15-.27-.3-.34a18.29,18.29,0,0,1-9.07-22.94l16.3,8.14Zm11.41-24.95-3.19,7-16.45-8.22,3.42-6.86Zm-19.08-9.53-3.42,6.86-12-6,3.42-6.86ZM1113,111.1l-3.43,6.86-5.18-2.59,3.42-6.86Zm-10,7.06,5.19,2.59-14.78,29.59-7.71,2.46Zm2-11.08-3.43,6.86-20-10,3.43-6.86ZM1060.64,97l16.3,8.14a18.31,18.31,0,0,1-23.79,6.53c-.15-.08-.3,0-.46,0ZM1082,95.64l-3.43,6.86-16.45-8.22,3.66-6.74ZM1080.85,194l-1.4-28.4-3.16-1.58-23.54,15.94-29.21-14.59,27.85-51.29c.13.13.19.33.37.41a21.44,21.44,0,0,0,28-7.88l20.29,10.14L1081.49,154c-.08.15,0,.31,0,.46a1.42,1.42,0,0,0-.42,1.49,1.58,1.58,0,0,0,.81.91,1.54,1.54,0,0,0,1.21.1l12-3.81a1.59,1.59,0,0,0,.91-.78L1111,122.18l12.24,6.11a21.45,21.45,0,0,0,10.55,27.15c.17.09.37,0,.55.05l-24.28,53.08Z" transform="translate(-1.5 -0.5)" style="fill:#d2d1db;opacity:0.21"/><path d="M659.66,321.59a1.89,1.89,0,0,0,.16-.62c0-25.54-19.25-27.35-33.3-28.67-4.94-.46-9.61-.9-13-2.17-23.8-8.91-31-27.16-31-27.35a3,3,0,0,0-2.89-1.66H511.3c-1.66,0-3,1-3,2.3v23.09c-9.26,9.35-9.11,23.59-9,32.19l0,2.27a1.89,1.89,0,0,0,.16.62c-1.85.78-3.16,2.25-3.16,4v9.21c0,2.55,2.69,4.6,6,4.6h39c2.77,0,5.09-1.43,5.79-3.37l17.29,3.25a8.54,8.54,0,0,0,1.43.12h91c3.31,0,6-2.05,6-4.6v-9.21C662.82,323.84,661.52,322.37,659.66,321.59Zm-5.84-.62h-31.6V296.52l3.57.35C640.2,298.22,653.82,299.5,653.82,321ZM559,265.73c-.22,6.13-1.62,8.53-9,8.53H514.3v-8.53Zm-45.4,23a2,2,0,0,0,.68-1.45V276.57H550c10.06,0,11.74-4.23,12-10.84h15.4c2.44,5.06,11.32,20.25,33.47,28.53a38.29,38.29,0,0,0,8.34,1.89V321H505.3l0-2.31C505.2,310.48,505.05,296.8,513.62,288.76Zm143.2,46h-91l-24.5-4.6v4.6h-39v-9.21H656.82Zm-90-63c0-2,2.13-3.65,4.76-3.65s4.75,1.63,4.75,3.65-2.13,3.64-4.75,3.64S566.8,273.78,566.8,271.77Zm10.76,8.63c2.62,0,4.75,1.63,4.75,3.65s-2.13,3.64-4.75,3.64-4.75-1.63-4.75-3.64S574.93,280.4,577.56,280.4Zm6,13.63c0-2,2.13-3.65,4.76-3.65s4.75,1.63,4.75,3.65-2.13,3.64-4.75,3.64S583.55,296,583.55,294Zm17,7.29c0-2,2.13-3.65,4.75-3.65s4.75,1.63,4.75,3.65-2.12,3.64-4.75,3.64S600.56,303.33,600.56,301.32Z" transform="translate(-1.5 -0.5)" style="fill:#d2d1db;opacity:0.21"/><path d="M1759.12,231.28c-26.12,0-47.6,19.15-49.53,43.37h-34.71a3.56,3.56,0,1,0,0,7.1H1805a3.66,3.66,0,0,0,3.76-3.55C1808.79,252.33,1786.51,231.28,1759.12,231.28Zm-42,43.37c1.9-20.3,20-36.28,42-36.28s40.08,16,42,36.28Z" transform="translate(-1.5 -0.5)" style="fill:#d2d1db;opacity:0.21"/><path d="M1513.93,912.73l-4.19-1.73c3.56-10.56,7.14-50-2.27-62.91,7.92,1.17,15.56-2.41,18.38-9.23,3.43-8.26-1.5-18.18-11-22.1s-20-.41-23.39,7.85c-2.83,6.82,0,14.76,6.46,19.53-15.74,2.43-41.15,32.87-46.11,42.85l-4.18-1.73c-2.44-1-5.13-.1-6,2l-8,19.26c-.88,2.12.38,4.66,2.82,5.67l66.27,27.47c2.44,1,5.14.11,6-2l8-19.26C1517.63,916.29,1516.37,913.74,1513.93,912.73Zm-18-86.29c2.55-6.14,10.33-8.76,17.39-5.83s10.7,10.27,8.16,16.42-10.33,8.76-17.39,5.83S1493.35,832.59,1495.89,826.44Zm5.84,22c9.41,3.9,8.28,47.4,3.6,60.71l-49.08-20.35C1462.35,876.11,1492.33,844.56,1501.73,848.46Zm2.62,87.38-66.28-27.47,8-19.26,66.28,27.47Z" transform="translate(-1.5 -0.5)" style="fill:#d2d1db;opacity:0.21"/><path d="M347.83,841.25a2.59,2.59,0,0,0-.17-.78c-5.49-11.42-26.73-21.54-50.77-10-21.5,10.33-59.69-1.31-66.75-6.09a2.75,2.75,0,0,0-1.42-.49c-13.18-1.24-43.68,22.4-50.42,31.65a2.81,2.81,0,0,0-.36,2.86L190,883.51c-.2,3.46-.66,18.38,5.08,30.31,0,.12.16.19.23.3-2,1.82-2.83,4.5-1.74,6.75l4,8.35c1.36,2.85,5.14,3.86,8.44,2.27l147.6-71c3.3-1.59,4.87-5.17,3.5-8l-4-8.35A5.59,5.59,0,0,0,347.83,841.25Zm-6.14,2.1-32.22,15.48-11-22.85c.29-.13.6-.22.88-.36C321.26,825.1,338,835.64,341.69,843.35ZM196.5,882.54a2.48,2.48,0,0,0-.24-1.31L184.63,857c8-9.37,33-27.12,42-27.3,8.06,4.71,41.07,15.43,65.54,8.49l11.29,23.48L201.06,911C195.26,898.9,196.49,882.71,196.5,882.54ZM351.16,855.4l-147.6,71-4-8.35,147.59-71Zm-119.65,9.28c2.48,5.15-.36,11.64-6.34,14.52s-12.84,1-15.31-4.11.38-11.64,6.35-14.52S229,859.54,231.51,864.68Zm-.16-28.38a4.19,4.19,0,1,1-5.27-1.42A3.87,3.87,0,0,1,231.35,836.3Zm13.14,8.18c.85,1.77-.13,4-2.2,5a3.6,3.6,0,1,1,2.2-5Zm14.91,3a4.19,4.19,0,1,1-5.28-1.41A3.89,3.89,0,0,1,259.4,847.44Zm16.48-.13a4.19,4.19,0,1,1-5.28-1.42A3.88,3.88,0,0,1,275.88,847.31Z" transform="translate(-1.5 -0.5)" style="fill:#d2d1db;opacity:0.21"/><path d="M1152.6,861a6.32,6.32,0,0,0-3-8.25L1109,832.48l-40.55-20.26a6.33,6.33,0,0,0-8.42,2.53l-42.24,77.82a6.14,6.14,0,0,0-.43,4.86,6.5,6.5,0,0,0,3.27,3.75l29.21,14.59a6.45,6.45,0,0,0,6.47-.39l17.05-11.54,1,20.56a6.41,6.41,0,0,0,3.57,5.4l29.21,14.59a6.51,6.51,0,0,0,5,.36,6.13,6.13,0,0,0,3.63-3.26Zm-17.22,22.27c-.12-.1-.15-.27-.3-.34A18.3,18.3,0,0,1,1126,860l16.3,8.14Zm11.41-25-3.19,7-16.45-8.22,3.42-6.86Zm-19.08-9.53-3.43,6.86-12-6,3.43-6.86Zm-14.85-7.41-3.43,6.85-5.19-2.59,3.43-6.86Zm-10,7L1108,851l-14.78,29.59-7.71,2.46Zm2-11.08-3.42,6.86-20-10,3.43-6.86Zm-44.26-10.06,16.3,8.14a18.3,18.3,0,0,1-23.79,6.53c-.15-.08-.3,0-.46,0Zm21.36-1.38-3.42,6.86L1062,824.53l3.66-6.74Zm-1.15,98.34-1.4-28.4-3.16-1.57-23.54,15.93-29.21-14.59,27.85-51.29c.13.14.19.33.37.42a21.45,21.45,0,0,0,28-7.89L1100,847l-18.61,37.25c-.07.15,0,.31,0,.46a1.41,1.41,0,0,0-.42,1.49,1.63,1.63,0,0,0,.8.91,1.65,1.65,0,0,0,1.22.1l12-3.82a1.52,1.52,0,0,0,.91-.77l15.07-30.17,12.24,6.11a21.45,21.45,0,0,0,10.54,27.16,1.75,1.75,0,0,0,.56,0L1110,938.82Z" transform="translate(-1.5 -0.5)" style="fill:#d2d1db;opacity:0.21"/><path d="M681.56,967.84a1.89,1.89,0,0,0,.16-.62c0-25.54-19.25-27.35-33.3-28.66-4.94-.47-9.61-.9-13-2.18-23.8-8.91-31-27.16-31.06-27.35a3,3,0,0,0-2.88-1.66H533.2c-1.66,0-3,1-3,2.3v23.09c-9.27,9.35-9.11,23.6-9,32.19l0,2.27a1.89,1.89,0,0,0,.16.62c-1.86.79-3.16,2.25-3.16,4V981c0,2.55,2.69,4.61,6,4.61h39c2.77,0,5.09-1.44,5.79-3.38l17.29,3.25a8.54,8.54,0,0,0,1.43.13h91c3.31,0,6-2.06,6-4.61v-9.2C684.72,970.09,683.42,968.63,681.56,967.84Zm-5.84-.62h-31.6V942.78l3.57.35C662.1,944.47,675.72,945.75,675.72,967.22ZM580.91,912c-.21,6.13-1.61,8.53-9,8.53H536.2V912Zm-45.39,23a2,2,0,0,0,.68-1.45V922.82h35.72c10.07,0,11.75-4.23,12-10.84h15.4c2.43,5.06,11.32,20.25,33.47,28.54a39.35,39.35,0,0,0,8.34,1.89v24.81H527.2l0-2.31C527.1,956.73,527,943.05,535.52,935Zm143.2,46h-91l-24.5-4.6V981h-39v-9.2H678.72Zm-90-63c0-2,2.13-3.65,4.75-3.65s4.76,1.64,4.76,3.65-2.13,3.65-4.76,3.65S588.7,920,588.7,918Zm10.76,8.63c2.62,0,4.75,1.63,4.75,3.65s-2.13,3.64-4.75,3.64-4.76-1.63-4.76-3.64S596.83,926.65,599.46,926.65Zm6,13.63c0-2,2.13-3.65,4.75-3.65s4.76,1.63,4.76,3.65-2.13,3.64-4.76,3.64S605.45,942.29,605.45,940.28Zm17,7.29c0-2,2.12-3.65,4.75-3.65s4.75,1.64,4.75,3.65-2.13,3.65-4.75,3.65S622.46,949.58,622.46,947.57Z" transform="translate(-1.5 -0.5)" style="fill:#d2d1db;opacity:0.21"/><path d="M1764,935.53c-26.13,0-47.6,19.16-49.53,43.37h-34.71a3.56,3.56,0,1,0,0,7.1h130.15a3.66,3.66,0,0,0,3.75-3.55C1813.68,956.58,1791.4,935.53,1764,935.53Zm-42,43.37c1.91-20.3,20-36.27,42-36.27s40.08,16,42,36.27Z" transform="translate(-1.5 -0.5)" style="fill:#d2d1db;opacity:0.21"/></svg>