<svg width="472" height="240" viewBox="0 0 472 240" fill="none" xmlns="http://www.w3.org/2000/svg">
<path d="M122.305 128.408H139.297V135H111.611V130.483L128.555 106.069H111.514V99.4531H139.126V103.848L122.305 128.408ZM172.671 117.959C172.671 121.426 172.028 124.494 170.742 127.163C169.456 129.832 167.625 131.891 165.249 133.34C162.889 134.772 160.195 135.488 157.168 135.488C154.141 135.488 151.455 134.797 149.111 133.413C146.768 132.013 144.937 130.02 143.618 127.432C142.316 124.844 141.632 121.873 141.567 118.521V116.519C141.567 113.035 142.202 109.967 143.472 107.314C144.757 104.645 146.589 102.586 148.965 101.138C151.357 99.6891 154.076 98.9648 157.119 98.9648C160.13 98.9648 162.816 99.681 165.176 101.113C167.536 102.546 169.367 104.588 170.669 107.241C171.987 109.878 172.655 112.905 172.671 116.323V117.959ZM163.955 116.47C163.955 112.938 163.361 110.26 162.173 108.438C161.001 106.598 159.316 105.679 157.119 105.679C152.822 105.679 150.552 108.901 150.308 115.347L150.283 117.959C150.283 121.442 150.861 124.119 152.017 125.991C153.172 127.863 154.889 128.799 157.168 128.799C159.333 128.799 161.001 127.879 162.173 126.04C163.345 124.201 163.939 121.556 163.955 118.105V116.47ZM206.777 135H198.257L185.659 112.881V135H177.09V99.4531H185.659L198.232 121.572V99.4531H206.777V135ZM234.243 119.937H220.767V128.408H236.685V135H212.197V99.4531H236.733V106.069H220.767V113.564H234.243V119.937ZM241.616 135V99.4531H253.237C257.095 99.4531 259.992 100.251 261.929 101.846C263.882 103.441 264.858 105.801 264.858 108.926C264.858 110.586 264.386 112.059 263.442 113.345C262.498 114.614 261.213 115.599 259.585 116.299C261.506 116.836 263.019 117.861 264.126 119.375C265.249 120.872 265.811 122.663 265.811 124.746C265.811 127.936 264.777 130.443 262.71 132.266C260.643 134.089 257.721 135 253.945 135H241.616ZM246.304 118.374V131.167H254.043C256.224 131.167 257.941 130.605 259.194 129.482C260.464 128.343 261.099 126.781 261.099 124.795C261.099 120.514 258.771 118.374 254.116 118.374H246.304ZM246.304 114.614H253.384C255.435 114.614 257.07 114.102 258.291 113.076C259.528 112.051 260.146 110.659 260.146 108.901C260.146 106.948 259.577 105.532 258.438 104.653C257.298 103.758 255.565 103.311 253.237 103.311H246.304V114.614ZM300.112 118.374C300.112 121.857 299.526 124.901 298.354 127.505C297.183 130.093 295.522 132.07 293.374 133.438C291.226 134.805 288.719 135.488 285.854 135.488C283.055 135.488 280.573 134.805 278.408 133.438C276.243 132.054 274.559 130.093 273.354 127.554C272.166 124.998 271.556 122.044 271.523 118.691V116.128C271.523 112.71 272.118 109.691 273.306 107.07C274.494 104.45 276.17 102.448 278.335 101.064C280.516 99.6647 283.006 98.9648 285.806 98.9648C288.654 98.9648 291.16 99.6566 293.325 101.04C295.506 102.407 297.183 104.401 298.354 107.021C299.526 109.626 300.112 112.661 300.112 116.128V118.374ZM295.449 116.079C295.449 111.864 294.603 108.633 292.91 106.387C291.217 104.124 288.849 102.993 285.806 102.993C282.843 102.993 280.508 104.124 278.799 106.387C277.106 108.633 276.235 111.758 276.187 115.762V118.374C276.187 122.459 277.041 125.674 278.75 128.018C280.475 130.345 282.843 131.509 285.854 131.509C288.882 131.509 291.226 130.41 292.886 128.213C294.546 125.999 295.4 122.834 295.449 118.716V116.079ZM334.487 118.374C334.487 121.857 333.901 124.901 332.729 127.505C331.558 130.093 329.897 132.07 327.749 133.438C325.601 134.805 323.094 135.488 320.229 135.488C317.43 135.488 314.948 134.805 312.783 133.438C310.618 132.054 308.934 130.093 307.729 127.554C306.541 124.998 305.931 122.044 305.898 118.691V116.128C305.898 112.71 306.493 109.691 307.681 107.07C308.869 104.45 310.545 102.448 312.71 101.064C314.891 99.6647 317.381 98.9648 320.181 98.9648C323.029 98.9648 325.535 99.6566 327.7 101.04C329.881 102.407 331.558 104.401 332.729 107.021C333.901 109.626 334.487 112.661 334.487 116.128V118.374ZM329.824 116.079C329.824 111.864 328.978 108.633 327.285 106.387C325.592 104.124 323.224 102.993 320.181 102.993C317.218 102.993 314.883 104.124 313.174 106.387C311.481 108.633 310.61 111.758 310.562 115.762V118.374C310.562 122.459 311.416 125.674 313.125 128.018C314.85 130.345 317.218 131.509 320.229 131.509C323.257 131.509 325.601 130.41 327.261 128.213C328.921 125.999 329.775 122.834 329.824 118.716V116.079ZM346.23 131.167H363.076V135H341.519V99.4531H346.23V131.167Z" fill="#272727"/>
<rect width="472" height="240" fill="black" fill-opacity="0.01"/>
</svg>
