<svg width="472" height="240" viewBox="0 0 472 240" fill="none" xmlns="http://www.w3.org/2000/svg">
<rect width="472" height="240" fill="black" fill-opacity="0.01"/>
<path d="M152.686 138V102.453H165.454C170.028 102.453 173.503 103.291 175.879 104.968C178.271 106.644 179.468 109.077 179.468 112.268C179.468 114.107 179.045 115.677 178.198 116.979C177.352 118.282 176.107 119.242 174.463 119.86C176.318 120.349 177.743 121.26 178.735 122.595C179.728 123.929 180.225 125.557 180.225 127.478C180.225 130.961 179.118 133.581 176.904 135.339C174.707 137.08 171.444 137.967 167.114 138H152.686ZM161.255 122.888V131.408H166.87C168.416 131.408 169.604 131.058 170.435 130.358C171.265 129.642 171.68 128.641 171.68 127.355C171.68 124.393 170.207 122.904 167.261 122.888H161.255ZM161.255 117.272H165.723C167.594 117.256 168.929 116.914 169.727 116.247C170.524 115.58 170.923 114.595 170.923 113.293C170.923 111.796 170.492 110.721 169.629 110.07C168.766 109.403 167.375 109.069 165.454 109.069H161.255V117.272ZM197.363 138.488C193.311 138.488 190.031 137.284 187.524 134.875C185.018 132.45 183.765 129.3 183.765 125.427V124.743C183.765 122.041 184.261 119.657 185.254 117.59C186.263 115.523 187.728 113.928 189.648 112.805C191.569 111.665 193.848 111.096 196.484 111.096C200.195 111.096 203.125 112.251 205.273 114.562C207.422 116.857 208.496 120.064 208.496 124.182V127.38H192.139C192.432 128.861 193.075 130.025 194.067 130.871C195.06 131.717 196.346 132.141 197.925 132.141C200.529 132.141 202.563 131.229 204.028 129.406L207.788 133.85C206.763 135.266 205.306 136.397 203.418 137.243C201.546 138.073 199.528 138.488 197.363 138.488ZM196.436 117.443C194.027 117.443 192.594 119.038 192.139 122.229H200.439V121.594C200.472 120.275 200.138 119.258 199.438 118.542C198.739 117.81 197.738 117.443 196.436 117.443ZM220.508 138H212.256V111.584H220.508V138ZM211.768 104.772C211.768 103.601 212.191 102.64 213.037 101.892C213.883 101.143 214.982 100.769 216.333 100.769C217.684 100.769 218.783 101.143 219.629 101.892C220.475 102.64 220.898 103.601 220.898 104.772C220.898 105.944 220.475 106.905 219.629 107.653C218.783 108.402 217.684 108.776 216.333 108.776C214.982 108.776 213.883 108.402 213.037 107.653C212.191 106.905 211.768 105.944 211.768 104.772ZM239.429 130.578C239.429 129.878 239.062 129.317 238.33 128.894C237.598 128.47 236.206 128.031 234.155 127.575C232.104 127.119 230.412 126.525 229.077 125.793C227.743 125.044 226.725 124.141 226.025 123.083C225.326 122.025 224.976 120.812 224.976 119.445C224.976 117.02 225.977 115.026 227.979 113.464C229.98 111.885 232.601 111.096 235.84 111.096C239.323 111.096 242.122 111.885 244.238 113.464C246.354 115.043 247.412 117.118 247.412 119.689H239.16C239.16 117.574 238.045 116.516 235.815 116.516C234.953 116.516 234.229 116.76 233.643 117.248C233.057 117.72 232.764 118.314 232.764 119.03C232.764 119.763 233.122 120.357 233.838 120.812C234.554 121.268 235.693 121.643 237.256 121.936C238.835 122.229 240.218 122.578 241.406 122.985C245.378 124.353 247.363 126.802 247.363 130.334C247.363 132.743 246.289 134.704 244.141 136.218C242.008 137.731 239.242 138.488 235.84 138.488C233.577 138.488 231.559 138.081 229.785 137.268C228.011 136.454 226.628 135.347 225.635 133.947C224.642 132.548 224.146 131.075 224.146 129.528H231.836C231.868 130.749 232.275 131.644 233.057 132.214C233.838 132.767 234.839 133.044 236.06 133.044C237.183 133.044 238.021 132.816 238.574 132.36C239.144 131.905 239.429 131.311 239.429 130.578ZM260.815 105.017V111.584H265.161V117.297H260.815V129.382C260.815 130.375 260.994 131.066 261.353 131.457C261.711 131.848 262.419 132.043 263.477 132.043C264.29 132.043 264.974 131.994 265.527 131.896V137.78C264.046 138.252 262.5 138.488 260.889 138.488C258.057 138.488 255.965 137.821 254.614 136.486C253.263 135.152 252.588 133.125 252.588 130.407V117.297H249.219V111.584H252.588V105.017H260.815ZM266.65 124.548C266.65 121.911 267.163 119.567 268.188 117.517C269.214 115.45 270.687 113.863 272.607 112.756C274.528 111.649 276.782 111.096 279.37 111.096C283.325 111.096 286.442 112.325 288.721 114.782C290.999 117.224 292.139 120.552 292.139 124.768V125.061C292.139 129.178 290.991 132.45 288.696 134.875C286.418 137.284 283.325 138.488 279.419 138.488C275.659 138.488 272.64 137.365 270.361 135.119C268.083 132.857 266.854 129.797 266.675 125.939L266.65 124.548ZM274.878 125.061C274.878 127.502 275.26 129.292 276.025 130.432C276.79 131.571 277.922 132.141 279.419 132.141C282.349 132.141 283.846 129.886 283.911 125.378V124.548C283.911 119.812 282.397 117.443 279.37 117.443C276.619 117.443 275.13 119.486 274.902 123.571L274.878 125.061ZM303.32 111.584L303.589 114.685C305.412 112.292 307.926 111.096 311.133 111.096C313.883 111.096 315.934 111.918 317.285 113.562C318.652 115.205 319.36 117.679 319.409 120.983V138H311.157V121.325C311.157 119.991 310.889 119.014 310.352 118.396C309.814 117.761 308.838 117.443 307.422 117.443C305.811 117.443 304.614 118.078 303.833 119.348V138H295.605V111.584H303.32Z" fill="#272727"/>
</svg>
