<svg width="472" height="240" viewBox="0 0 472 240" fill="none" xmlns="http://www.w3.org/2000/svg">
<rect width="472" height="240" fill="black" fill-opacity="0.01"/>
<path d="M121.303 99.623L129.604 128.432L138.197 99.623H144.691V134.633H140.59V104.604L131.898 132.729C131.671 133.477 131.361 133.982 130.971 134.242C130.613 134.503 130.173 134.633 129.652 134.633H127.26L118.91 105.678V134.633H115.102V104.994C115.102 104.018 115.036 103.334 114.906 102.943C114.776 102.52 114.467 102.227 113.979 102.064C113.458 101.869 113.051 101.706 112.758 101.576C112.465 101.446 112.318 101.169 112.318 100.746C112.318 99.9974 112.79 99.623 113.734 99.623H121.303ZM156.02 134.633H151.82V115.395C151.82 114.418 151.723 113.718 151.527 113.295C151.365 112.839 151.055 112.546 150.6 112.416C150.111 112.253 149.704 112.09 149.379 111.928C149.086 111.765 148.939 111.505 148.939 111.146C148.939 110.398 149.428 110.023 150.404 110.023H154.408C155.482 110.023 156.02 110.561 156.02 111.635V134.633ZM156.605 101.918C156.605 102.797 156.296 103.546 155.678 104.164C155.059 104.783 154.311 105.092 153.432 105.092C152.52 105.092 151.755 104.783 151.137 104.164C150.518 103.546 150.209 102.797 150.209 101.918C150.209 101.072 150.518 100.339 151.137 99.7207C151.755 99.1022 152.52 98.793 153.432 98.793C154.311 98.793 155.059 99.1022 155.678 99.7207C156.296 100.339 156.605 101.072 156.605 101.918ZM179.945 133.412C179.034 133.965 177.911 134.389 176.576 134.682C175.274 134.942 173.826 135.023 172.23 134.926C169.138 134.73 166.469 133.477 164.223 131.166C161.977 128.822 160.854 125.535 160.854 121.303C160.854 117.559 161.863 114.646 163.881 112.562C165.899 110.447 168.552 109.389 171.84 109.389C174.477 109.389 176.609 110.056 178.236 111.391C179.896 112.725 180.808 114.402 180.971 116.42H176.625C176.625 115.215 176.186 114.239 175.307 113.49C174.46 112.742 173.223 112.367 171.596 112.367C169.968 112.367 168.503 113.132 167.201 114.662C165.899 116.16 165.248 118.373 165.248 121.303C165.248 124.395 165.964 126.885 167.396 128.773C168.861 130.629 170.798 131.687 173.207 131.947C174.086 132.045 175.014 132.012 175.99 131.85C176.967 131.654 177.911 131.345 178.822 130.922C179.343 130.661 179.783 130.629 180.141 130.824C180.499 130.987 180.743 131.199 180.873 131.459C181.003 131.85 180.971 132.224 180.775 132.582C180.58 132.94 180.303 133.217 179.945 133.412ZM190.395 134.633H186.244V103.871C186.244 102.895 186.146 102.211 185.951 101.82C185.756 101.397 185.479 101.12 185.121 100.99C184.6 100.795 184.177 100.632 183.852 100.502C183.526 100.339 183.363 100.046 183.363 99.623C183.363 98.9069 183.852 98.5488 184.828 98.5488H188.783C189.857 98.5488 190.395 99.0534 190.395 100.062V114.027C191.013 112.986 191.859 112.074 192.934 111.293C194.398 110.186 196.107 109.633 198.061 109.633C200.014 109.633 201.658 110.365 202.992 111.83C204.327 113.295 204.994 115.834 204.994 119.447V134.633H200.844V119.301C200.844 117.055 200.502 115.492 199.818 114.613C199.167 113.734 198.256 113.295 197.084 113.295C195.521 113.327 194.008 114.255 192.543 116.078C191.501 117.38 190.785 119.138 190.395 121.352V134.633ZM224.721 131.898C224.33 132.517 223.484 133.184 222.182 133.9C220.912 134.617 219.268 134.975 217.25 134.975C215.199 134.975 213.474 134.356 212.074 133.119C210.707 131.882 210.023 130.238 210.023 128.188C210.023 125.453 211.244 123.288 213.686 121.693C216.127 120.098 219.268 119.301 223.109 119.301H224.721V117.982C224.721 116.225 224.249 114.857 223.305 113.881C222.393 112.872 221.14 112.367 219.545 112.367C218.145 112.367 216.99 112.709 216.078 113.393C215.199 114.044 214.76 115.069 214.76 116.469H210.316C210.316 114.32 211.179 112.611 212.904 111.342C214.662 110.04 216.924 109.389 219.691 109.389C222.589 109.389 224.835 110.154 226.43 111.684C228.057 113.181 228.871 115.264 228.871 117.934V134.633H224.721V131.898ZM224.721 122.426C221.205 122.328 218.568 122.768 216.811 123.744C215.053 124.721 214.174 126.039 214.174 127.699C214.174 129.099 214.564 130.108 215.346 130.727C216.127 131.345 217.055 131.654 218.129 131.654C219.691 131.654 221.173 131.085 222.572 129.945C224.005 128.773 224.721 127.309 224.721 125.551V122.426ZM237.465 122.914C237.562 125.29 238.295 127.325 239.662 129.018C241.062 130.71 242.966 131.687 245.375 131.947C246.254 132.045 247.182 132.012 248.158 131.85C249.135 131.654 250.079 131.345 250.99 130.922C251.511 130.661 251.951 130.629 252.309 130.824C252.699 130.987 252.943 131.215 253.041 131.508C253.139 131.866 253.09 132.224 252.895 132.582C252.732 132.94 252.471 133.217 252.113 133.412C251.202 133.965 250.079 134.389 248.744 134.682C247.442 134.942 245.993 135.023 244.398 134.926C241.306 134.73 238.637 133.477 236.391 131.166C234.145 128.822 233.021 125.535 233.021 121.303C233.021 117.559 234.031 114.646 236.049 112.562C238.067 110.447 240.688 109.389 243.91 109.389C246.612 109.389 248.874 110.349 250.697 112.27C252.553 114.19 253.48 117.087 253.48 120.961V122.914H237.465ZM237.465 119.838H249.281C249.281 117.234 248.744 115.346 247.67 114.174C246.628 112.969 245.359 112.367 243.861 112.367C242.136 112.367 240.655 113.067 239.418 114.467C238.181 115.834 237.53 117.624 237.465 119.838ZM263.002 134.633H258.803V103.871C258.803 102.895 258.705 102.195 258.51 101.771C258.347 101.348 258.038 101.072 257.582 100.941C257.094 100.779 256.687 100.616 256.361 100.453C256.068 100.258 255.922 99.9811 255.922 99.623C255.922 98.9069 256.41 98.5488 257.387 98.5488H261.391C262.465 98.5488 263.002 99.0534 263.002 100.062V134.633ZM275.925 104.2V115.75L289.275 101.7H292.175C292.775 101.7 293.141 101.817 293.275 102.05C293.441 102.25 293.491 102.483 293.425 102.75C293.358 103.017 293.241 103.25 293.075 103.45C292.908 103.65 292.825 103.75 292.825 103.75L279.925 117.4L296.375 137.05H289.925L275.925 120.2V137.05H270.775V108.55C270.775 107.183 270.575 106.167 270.175 105.5C269.775 104.8 268.925 104.45 267.625 104.45C267.125 104.45 266.775 104.317 266.575 104.05C266.375 103.75 266.275 103.4 266.275 103C266.275 102.633 266.425 102.333 266.725 102.1C267.025 101.833 267.341 101.7 267.675 101.7H273.375C274.275 101.7 274.925 102 275.325 102.6C275.725 103.167 275.925 103.7 275.925 104.2ZM312.446 137.05V134.35C311.546 135.35 310.413 136.133 309.046 136.7C307.713 137.3 305.946 137.6 303.746 137.6C301.713 137.6 300.063 136.967 298.796 135.7C297.529 134.433 296.896 132.8 296.896 130.8C296.896 129.133 297.313 127.733 298.146 126.6C299.013 125.467 300.096 124.55 301.396 123.85C302.696 123.15 304.113 122.65 305.646 122.35C307.213 122.05 308.696 121.9 310.096 121.9C310.296 121.9 310.529 121.9 310.796 121.9C311.063 121.9 311.313 121.883 311.546 121.85C311.779 121.85 311.979 121.85 312.146 121.85C312.313 121.817 312.413 121.8 312.446 121.8V120.5C312.446 119.9 312.363 119.283 312.196 118.65C312.029 117.983 311.763 117.4 311.396 116.9C310.996 116.367 310.463 115.933 309.796 115.6C309.129 115.267 308.296 115.1 307.296 115.1C305.796 115.1 304.629 115.467 303.796 116.2C302.963 116.933 302.546 118 302.546 119.4H297.196C297.196 118.567 297.379 117.717 297.746 116.85C298.146 115.95 298.779 115.133 299.646 114.4C300.479 113.7 301.546 113.117 302.846 112.65C304.146 112.183 305.696 111.95 307.496 111.95C310.596 111.95 313.013 112.733 314.746 114.3C316.479 115.833 317.346 117.95 317.346 120.65V137.05H312.446ZM312.446 128.25V124.95C311.779 124.95 310.963 124.983 309.996 125.05C309.029 125.083 308.079 125.2 307.146 125.4C305.779 125.733 304.613 126.267 303.646 127C302.679 127.733 302.196 128.833 302.196 130.3C302.196 130.633 302.229 131.017 302.296 131.45C302.396 131.85 302.579 132.217 302.846 132.55C303.113 132.917 303.479 133.217 303.946 133.45C304.413 133.683 305.029 133.8 305.796 133.8C306.629 133.8 307.429 133.683 308.196 133.45C308.996 133.183 309.713 132.8 310.346 132.3C310.979 131.833 311.479 131.267 311.846 130.6C312.246 129.9 312.446 129.117 312.446 128.25ZM338.823 113.15V117.6C337.723 116.9 336.556 116.333 335.323 115.9C334.089 115.467 332.889 115.25 331.723 115.25C330.656 115.25 329.689 115.45 328.823 115.85C327.956 116.217 327.506 116.9 327.473 117.9C327.439 118.3 327.473 118.683 327.573 119.05C327.673 119.417 327.873 119.717 328.173 119.95C328.973 120.683 329.856 121.217 330.823 121.55C331.823 121.883 332.823 122.217 333.823 122.55C334.823 122.883 335.789 123.317 336.723 123.85C337.689 124.35 338.573 125.117 339.373 126.15C339.673 126.65 339.923 127.183 340.123 127.75C340.323 128.283 340.423 128.9 340.423 129.6C340.423 131.033 340.123 132.267 339.523 133.3C338.923 134.3 338.139 135.117 337.173 135.75C336.239 136.383 335.173 136.833 333.973 137.1C332.806 137.4 331.656 137.55 330.523 137.55C329.289 137.55 328.106 137.467 326.973 137.3C325.839 137.133 324.823 136.883 323.923 136.55C323.223 136.317 322.756 135.933 322.523 135.4C322.323 134.867 322.273 134.35 322.373 133.85C322.506 133.35 322.756 132.95 323.123 132.65C323.489 132.35 323.923 132.283 324.423 132.45C324.756 132.617 325.123 132.8 325.523 133C325.923 133.167 326.356 133.333 326.823 133.5C327.289 133.667 327.789 133.8 328.323 133.9C328.889 134 329.489 134.05 330.123 134.05C331.589 134.05 332.856 133.833 333.923 133.4C335.023 132.933 335.573 131.967 335.573 130.5C335.573 129.767 335.323 129.1 334.823 128.5C334.356 127.9 333.673 127.383 332.773 126.95C332.106 126.683 331.356 126.417 330.523 126.15C329.689 125.883 328.856 125.567 328.023 125.2C327.156 124.867 326.339 124.483 325.573 124.05C324.839 123.583 324.223 123.033 323.723 122.4C323.056 121.6 322.673 120.65 322.573 119.55C322.506 118.45 322.689 117.35 323.123 116.25C323.756 114.683 324.806 113.583 326.273 112.95C327.773 112.283 329.456 111.933 331.323 111.9C331.756 111.9 332.306 111.933 332.973 112C333.639 112.033 334.339 112.117 335.073 112.25C335.806 112.35 336.506 112.483 337.173 112.65C337.839 112.817 338.389 112.983 338.823 113.15ZM356.207 137.55C354.54 137.55 352.94 137.283 351.407 136.75C349.907 136.217 348.59 135.417 347.457 134.35C346.29 133.283 345.357 131.967 344.657 130.4C343.99 128.8 343.657 126.967 343.657 124.9C343.657 123.167 343.94 121.517 344.507 119.95C345.074 118.35 345.89 116.967 346.957 115.8C348.024 114.633 349.324 113.7 350.857 113C352.39 112.3 354.14 111.95 356.107 111.95C357.907 111.95 359.574 112.267 361.107 112.9C362.64 113.5 363.974 114.35 365.107 115.45C366.24 116.583 367.124 117.95 367.757 119.55C368.424 121.117 368.757 122.883 368.757 124.85C368.757 126.817 368.424 128.583 367.757 130.15C367.124 131.717 366.24 133.05 365.107 134.15C364.007 135.25 362.69 136.083 361.157 136.65C359.624 137.25 357.974 137.55 356.207 137.55ZM348.957 124.9C348.957 126.167 349.09 127.367 349.357 128.5C349.657 129.633 350.107 130.633 350.707 131.5C351.307 132.367 352.057 133.05 352.957 133.55C353.89 134.05 354.99 134.3 356.257 134.3C357.424 134.3 358.44 134.05 359.307 133.55C360.207 133.017 360.957 132.317 361.557 131.45C362.157 130.583 362.607 129.583 362.907 128.45C363.207 127.317 363.357 126.117 363.357 124.85C363.357 123.617 363.207 122.433 362.907 121.3C362.607 120.133 362.157 119.1 361.557 118.2C360.957 117.3 360.19 116.583 359.257 116.05C358.357 115.483 357.29 115.2 356.057 115.2C354.824 115.2 353.757 115.467 352.857 116C351.99 116.533 351.257 117.233 350.657 118.1C350.09 119 349.657 120.033 349.357 121.2C349.09 122.367 348.957 123.6 348.957 124.9Z" fill="#272727"/>
</svg>
