<svg width="472" height="240" viewBox="0 0 472 240" fill="none" xmlns="http://www.w3.org/2000/svg">
<rect width="472" height="240" fill="black" fill-opacity="0.01"/>
<path d="M201 131.371L272.094 131.371L272.094 156.908C272.094 166.055 270.417 173.005 267.064 177.758C263.712 182.543 258.845 184.936 252.465 184.936C248.786 184.936 245.645 184.089 243.041 182.396C240.437 180.704 238.516 178.214 237.279 174.926C236.303 178.637 234.48 181.485 231.811 183.471C229.141 185.456 225.886 186.449 222.045 186.449C215.079 186.449 209.838 184.236 206.322 179.809C202.839 175.414 201.065 168.887 201 160.229L201 131.371ZM231.225 148.51L214.184 148.51L214.184 159.74C214.184 162.833 214.883 165.209 216.283 166.869C217.715 168.529 219.717 169.359 222.289 169.359C228.214 169.359 231.192 166.413 231.225 160.521L231.225 148.51ZM242.455 148.51L242.455 157.445C242.488 161.189 243.171 163.858 244.506 165.453C245.84 167.048 247.81 167.846 250.414 167.846C253.409 167.846 255.557 166.983 256.859 165.258C258.194 163.533 258.861 160.749 258.861 156.908L258.861 148.51L242.455 148.51Z" fill="#272727"/>
<path d="M271 124.629L199.906 124.629L199.906 99.0918C199.906 89.9447 201.583 82.9948 204.936 78.2422C208.288 73.457 213.155 71.0645 219.535 71.0645C223.214 71.0645 226.355 71.9108 228.959 73.6035C231.563 75.2962 233.484 77.7865 234.721 81.0742C235.697 77.3633 237.52 74.515 240.189 72.5293C242.859 70.5436 246.114 69.5508 249.955 69.5508C256.921 69.5508 262.162 71.7643 265.678 76.1914C269.161 80.5859 270.935 87.1126 271 95.7715L271 124.629ZM240.775 107.49L257.816 107.49L257.816 96.2598C257.816 93.1673 257.117 90.791 255.717 89.1309C254.285 87.4707 252.283 86.6406 249.711 86.6406C243.786 86.6406 240.808 89.5866 240.775 95.4785L240.775 107.49ZM229.545 107.49L229.545 98.5547C229.512 94.8112 228.829 92.1419 227.494 90.5469C226.16 88.9518 224.19 88.1543 221.586 88.1543C218.591 88.1543 216.443 89.0169 215.141 90.7422C213.806 92.4674 213.139 95.2506 213.139 99.0918L213.139 107.49L229.545 107.49Z" fill="#272727"/>
</svg>
