<svg height="512" viewBox="0 0 512 512" width="512" xmlns="http://www.w3.org/2000/svg"><g id="flat"><path d="m462.774 280.094a8 8 0 0 0 -9.127 6.685 200.048 200.048 0 0 1 -197.647 169.221c-103.414 0-188.747-78.895-198.972-179.659l9.315 9.316a8 8 0 1 0 11.314-11.314l-24-24a8 8 0 0 0 -11.314 0l-24 24a8 8 0 0 0 11.314 11.314l11.137-11.137a216.02 216.02 0 0 0 428.666 14.7 8 8 0 0 0 -6.686-9.126z" fill="#2cbff4"/><path d="m493.657 226.343a8 8 0 0 0 -11.314 0l-11.137 11.137a216.02 216.02 0 0 0 -428.666-14.7 8 8 0 0 0 15.813 2.442 200.048 200.048 0 0 1 197.647-169.222c103.415 0 188.748 78.9 198.972 179.659l-9.315-9.316a8 8 0 0 0 -11.314 11.314l24 24a8 8 0 0 0 11.314 0l24-24a8 8 0 0 0 0-11.314z" fill="#c4f8ff"/><path d="m168 208h128v128h-128z" fill="#ea9d2d"/><path d="m216 208h32v56h-32z" fill="#e82f3e"/><path d="m296 208 48-32v120l-48 40z" fill="#d18d28"/><path d="m168 208 48-32h128l-48 32z" fill="#f7ba61"/><path d="m224 312h-16a8 8 0 0 1 0-16h16a8 8 0 0 1 0 16z" fill="#d18d28"/><path d="m264 312h-8a8 8 0 0 1 0-16h8a8 8 0 0 1 0 16z" fill="#d18d28"/><circle cx="256" cy="384" fill="#ea9d2d" r="8"/><g fill="#d18d28"><circle cx="224" cy="384" r="8"/><circle cx="288" cy="384" r="8"/></g></g></svg>